#!OML:ASF H:\ManfredObstacles\Project 1\Capture day 2\Session 1\male.ASF
:FULLY-SPECIFIED
:DEGREES
515
root 1.99161 16.4891 -31.4871 -163.576 -0.384881 179.724
lowerback 0.401953 5.28634 -0.115434
upperback -0.771893 7.0208 -1.89423
thorax -0.791977 3.49969 -1.93845
lowerneck -34.7544 -5.09255 -3.50613
upperneck 34.1949 -8.40333 3.95881
head 19.319 -3.35304 0.217403
rclavicle -2.27608e-014 1.37161e-014
rhumerus -40.479 20.4348 -91.7054
rradius 101.889
rwrist 9.28339
rhand -14.2349 -1.19877
rfingers 7.12502
rthumb 11.9026 -30.8404
lclavicle -2.27608e-014 1.37161e-014
lhumerus -71.3771 -29.1624 91.0331
lradius 101.241
lwrist -21.9262
lhand -19.9927 5.05629
lfingers 7.12502
lthumb 6.34689 34.9412
rfemur 6.15197 4.45697 24.8512
rtibia 12.4878
rfoot 24.3772 -10.493
rtoes -30.6568
lfemur -41.2558 -4.0678 -19.0148
ltibia 40.111
lfoot 7.36083 15.7015
ltoes -7.09899
516
root 1.97964 16.5045 -31.7965 -163.439 -0.689006 179.637
lowerback -0.174803 5.24145 -0.21549
upperback -0.901204 6.95921 -1.99362
thorax -0.604525 3.46722 -1.9335
lowerneck -34.6983 -5.11728 -3.47602
upperneck 34.2363 -8.48182 3.97215
head 19.3335 -3.3805 0.197717
rclavicle -6.12257e-014 -8.24956e-015
rhumerus -41.1631 20.8671 -91.7238
rradius 101.78
rwrist 9.04589
rhand -13.9939 -1.08524
rfingers 7.12502
rthumb 12.135 -30.7133
lclavicle -6.12257e-014 -8.24956e-015
lhumerus -71.7958 -29.2128 91.0584
lradius 101.924
lwrist -21.7542
lhand -20.2385 5.14368
lfingers 7.12502
lthumb 6.10956 35.0356
rfemur 7.21437 3.76661 24.7229
rtibia 11.6996
rfoot 26.2888 -10.4127
rtoes -29.5968
lfemur -40.721 -4.84554 -18.8524
ltibia 37.2479
lfoot 7.526 14.2802
ltoes -7.59245
517
root 1.96705 16.5102 -32.1047 -163.359 -0.900601 179.623
lowerback -0.716812 5.21359 -0.281702
upperback -0.99075 6.92259 -2.05678
thorax -0.395381 3.44739 -1.91209
lowerneck -34.7266 -5.12902 -3.43601
upperneck 34.2854 -8.52956 3.96568
head 19.3686 -3.39421 0.173811
rclavicle -6.27166e-014 1.2921e-015
rhumerus -41.8202 21.1993 -91.7319
rradius 101.6
rwrist 8.77373
rhand -13.7164 -0.957624
rfingers 7.12502
rthumb 12.4025 -30.5697
lclavicle -6.27166e-014 1.2921e-015
lhumerus -72.0757 -29.226 91.1338
lradius 102.581
lwrist -21.5774
lhand -20.4985 5.19025
lfingers 7.12502
lthumb 5.85859 35.0893
rfemur 8.11425 3.11315 24.6153
rtibia 11.3151
rfoot 27.9985 -10.2439
rtoes -28.3034
lfemur -40.1635 -5.55666 -18.6287
ltibia 34.8861
lfoot 7.76739 13.0275
ltoes -8.12352
518
root 1.95275 16.5046 -32.4102 -163.338 -1.06192 179.744
lowerback -1.19125 5.21558 -0.206917
upperback -1.06054 6.92713 -2.07047
thorax -0.191895 3.44836 -1.92271
lowerneck -34.7535 -5.1528 -3.43005
upperneck 34.3176 -8.57059 3.95974
head 19.3953 -3.4094 0.157957
rclavicle -1.22998e-015 2.08724e-015
rhumerus -42.4974 21.3561 -91.7269
rradius 101.368
rwrist 8.45396
rhand -13.4137 -0.818079
rfingers 7.12502
rthumb 12.6944 -30.4123
lclavicle -1.22998e-015 2.08724e-015
lhumerus -72.2462 -29.2565 91.3189
lradius 103.22
lwrist -21.3707
lhand -20.7613 5.21911
lfingers 7.12502
lthumb 5.60484 35.125
rfemur 8.79135 2.53505 24.6074
rtibia 11.4416
rfoot 29.5041 -9.94233
rtoes -26.7432
lfemur -39.627 -6.18305 -18.3004
ltibia 33.115
lfoot 8.13505 11.9017
ltoes -8.60104
519
root 1.93873 16.487 -32.7138 -163.4 -1.11006 179.925
lowerback -1.56972 5.24342 -0.121534
upperback -1.11921 6.96515 -2.05431
thorax -0.0318992 3.46639 -1.91729
lowerneck -34.7719 -5.16256 -3.4227
upperneck 34.3522 -8.59009 3.94859
head 19.4196 -3.41759 0.145141
rclavicle -2.0071e-014 -7.90169e-015
rhumerus -43.2218 21.3458 -91.7666
rradius 101.074
rwrist 8.14312
rhand -13.0999 -0.665383
rfingers 7.12502
rthumb 12.9969 -30.2405
lclavicle -2.0071e-014 -7.90169e-015
lhumerus -72.3467 -29.2476 91.5864
lradius 103.844
lwrist -21.2234
lhand -21.034 5.21719
lfingers 7.12502
lthumb 5.34154 35.1299
rfemur 9.14984 2.16483 24.634
rtibia 12.3106
rfoot 30.7445 -9.58251
rtoes -24.9684
lfemur -39.0578 -6.68396 -17.9753
ltibia 31.9255
lfoot 8.6923 10.8908
ltoes -7.14198
520
root 1.92583 16.458 -33.0157 -163.543 -1.01715 180.1
lowerback -1.86842 5.29518 -0.0961901
upperback -1.17477 7.0342 -2.03152
thorax 0.0798748 3.49994 -1.87945
lowerneck -34.6864 -5.13423 -3.37062
upperneck 34.345 -8.56503 3.90883
head 19.3871 -3.4115 0.125276
rclavicle 3.90488e-014 3.2551e-015
rhumerus -44.0324 21.1608 -91.8868
rradius 100.707
rwrist 7.89627
rhand -12.8318 -0.508907
rfingers 7.12502
rthumb 13.2554 -30.0674
lclavicle 3.90488e-014 3.2551e-015
lhumerus -72.4076 -29.1932 91.9317
lradius 104.45
lwrist -21.1482
lhand -21.3246 5.20479
lfingers 7.12502
lthumb 5.06095 35.1244
rfemur 9.17173 2.04801 24.6366
rtibia 13.9458
rfoot 31.7139 -9.23247
rtoes -22.9976
lfemur -38.4456 -7.03207 -17.7507
ltibia 31.326
lfoot 9.46863 10.0364
ltoes -5.25633
521
root 1.91368 16.4163 -33.3148 -163.764 -0.82642 180.24
lowerback -2.06568 5.34885 -0.142429
upperback -1.21837 7.10597 -2.00332
thorax 0.138113 3.53506 -1.80654
lowerneck -34.5817 -5.08991 -3.31407
upperneck 34.3264 -8.51468 3.86341
head 19.3413 -3.39694 0.109155
rclavicle -1.14363e-014 -5.15598e-015
rhumerus -44.9034 20.8136 -92.0653
rradius 100.255
rwrist 7.77367
rhand -12.6469 -0.376377
rfingers 7.12502
rthumb 13.4336 -29.9232
lclavicle -1.14363e-014 -5.15598e-015
lhumerus -72.3913 -29.0848 92.3323
lradius 105.02
lwrist -21.1676
lhand -21.6481 5.1819
lfingers 7.12502
lthumb 4.74855 35.1087
rfemur 8.87457 2.08787 24.5911
rtibia 16.3022
rfoot 32.3829 -8.90678
rtoes -21.0836
lfemur -37.7656 -7.18666 -17.6947
ltibia 31.2709
lfoot 10.2766 9.46511
ltoes -2.64253
522
root 1.90136 16.361 -33.6095 -164.059 -0.606012 180.374
lowerback -2.16681 5.38079 -0.196
upperback -1.25926 7.14841 -1.96045
thorax 0.141764 3.5557 -1.72521
lowerneck -34.4002 -5.0092 -3.23265
upperneck 34.2882 -8.41904 3.80173
head 19.2608 -3.36772 0.0945422
rclavicle -2.90598e-014 -1.04859e-014
rhumerus -45.8497 20.3212 -92.2982
rradius 99.704
rwrist 7.79759
rhand -12.5451 -0.295725
rfingers 7.12502
rthumb 13.5317 -29.8361
lclavicle -2.90598e-014 -1.04859e-014
lhumerus -72.3163 -28.9108 92.7934
lradius 105.543
lwrist -21.2517
lhand -22.0236 5.15788
lfingers 7.12502
lthumb 4.38601 35.0925
rfemur 8.35862 2.1526 24.5277
rtibia 19.1662
rfoot 32.8169 -8.59084
rtoes -19.3669
lfemur -37.0175 -7.14123 -17.7878
ltibia 31.7514
lfoot 10.7694 9.28551
ltoes -0.334802
523
root 1.88947 16.294 -33.8994 -164.412 -0.356247 180.438
lowerback -2.18599 5.38114 -0.320979
upperback -1.27203 7.15001 -1.92074
thorax 0.119108 3.55649 -1.61629
lowerneck -34.232 -4.90781 -3.14786
upperneck 34.2335 -8.28913 3.74193
head 19.1726 -3.3238 0.0893683
rclavicle 4.16827e-014 -2.88238e-015
rhumerus -46.8043 19.7038 -92.5418
rradius 99.0515
rwrist 8.0103
rhand -12.5298 -0.31224
rfingers 7.12502
rthumb 13.5465 -29.8516
lclavicle 4.16827e-014 -2.88238e-015
lhumerus -72.0984 -28.6701 93.2642
lradius 106.014
lwrist -21.3991
lhand -22.4083 5.16374
lfingers 7.12502
lthumb 4.01448 35.1057
rfemur 7.65641 2.19889 24.3771
rtibia 22.4196
rfoot 33.0098 -8.42386
rtoes -18.0558
lfemur -36.1931 -6.90948 -18.0766
ltibia 32.6811
lfoot 10.7457 9.56302
ltoes 0.90456
524
root 1.87393 16.2142 -34.1828 -164.835 -0.237988 180.637
lowerback -2.1061 5.30873 -0.2136
upperback -1.20639 7.0552 -1.83274
thorax 0.141348 3.51083 -1.59205
lowerneck -34.2353 -4.76965 -3.00151
upperneck 34.1768 -8.1048 3.64595
head 19.1156 -3.24836 0.0686546
rclavicle 2.71838e-014 1.37161e-014
rhumerus -47.6325 19.0168 -92.7398
rradius 98.2667
rwrist 8.41305
rhand -12.5984 -0.442486
rfingers 7.12502
rthumb 13.4803 -29.9862
lclavicle 2.71838e-014 1.37161e-014
lhumerus -71.601 -28.3468 93.6834
lradius 106.417
lwrist -21.5509
lhand -22.8067 5.18648
lfingers 7.12502
lthumb 3.6298 35.1353
rfemur 6.85909 2.0324 24.35
rtibia 25.9219
rfoot 32.9502 -8.33265
rtoes -17.2697
lfemur -35.3113 -6.58175 -18.3002
ltibia 33.9766
lfoot 10.0216 10.3122
ltoes 0.65224
525
root 1.85856 16.127 -34.4616 -165.297 -0.119454 180.762
lowerback -1.94376 5.20164 -0.157944
upperback -1.13155 6.91415 -1.76055
thorax 0.121638 3.44208 -1.56463
lowerneck -34.2342 -4.61788 -2.8743
upperneck 34.1202 -7.90298 3.57826
head 19.061 -3.16475 0.0690438
rclavicle -5.75979e-014 3.97569e-016
rhumerus -48.4834 18.2162 -92.9221
rradius 97.3588
rwrist 9.00123
rhand -12.7246 -0.680203
rfingers 7.12502
rthumb 13.3587 -30.232
lclavicle -5.75979e-014 3.97569e-016
lhumerus -70.9853 -27.9706 94.1281
lradius 106.767
lwrist -21.6961
lhand -23.1945 5.21989
lfingers 7.12502
lthumb 3.25529 35.1748
rfemur 5.95475 1.77385 24.2211
rtibia 29.6019
rfoot 32.6577 -8.42605
rtoes -16.8404
lfemur -34.3702 -6.21056 -18.6238
ltibia 35.4825
lfoot 8.72521 11.504
ltoes -0.319198
